<?xml version="1.0" encoding="utf-8"?>
<!-- Svg Vector Icons : http://www.onlinewebfonts.com/icon -->
<!DOCTYPE svg PUBLIC "-//W3C//DTD SVG 1.1//EN" "http://www.w3.org/Graphics/SVG/1.1/DTD/svg11.dtd">
<svg version="1.1" xmlns="http://www.w3.org/2000/svg" xmlns:xlink="http://www.w3.org/1999/xlink" x="0px" y="0px" viewBox="0 0 1000 1000" enable-background="new 0 0 1000 1000" xml:space="preserve">
<metadata> Svg Vector Icons : http://www.onlinewebfonts.com/icon </metadata>
<g><path fill="#004484" d="M500,10C229.3,10,10,229.3,10,500s219.3,490,490,490s490-219.3,490-490S770.7,10,500,10z M500,50.8c247.6,0,449.2,201.4,449.2,449.2c0,109.5-39.3,209.9-104.6,287.9c-47.1-19.3-155.2-56.8-218.9-75.6c-5.7-1.6-6.4-2.1-6.4-25.2c0-19.1,7.8-38.4,15.5-54.9c8.5-17.7,18.1-47.6,21.7-74.4c9.9-11.5,23.6-34.2,32-77.5c7.5-38.2,4-52.1-0.9-65c-0.5-1.4-1.2-2.8-1.4-4c-1.9-9,0.7-55.4,7.3-91.4c4.5-24.7-1.2-77.3-35.1-120.9c-21.4-27.6-62.7-61.3-137.8-66h-41.2c-74,4.7-115,38.4-136.6,66c-34.2,43.6-39.8,96.1-35.3,120.9c6.6,36,9.2,82.5,7.3,91.4c-0.5,1.6-0.9,2.8-1.4,4.2c-4.9,13-8.7,26.9-0.9,65c8.7,43.3,22.1,66,32,77.5c3.5,26.9,13.4,56.5,21.7,74.4c6.1,13,9,30.6,9,55.6c0,23.3-0.9,23.6-6.1,25.2c-66.2,19.6-171,57.2-213,75.4C90.3,710.4,50.8,609.8,50.8,500C50.8,252.4,252.4,50.8,500,50.8z"/></g>
</svg>