<svg xmlns="http://www.w3.org/2000/svg" xmlns:xlink="http://www.w3.org/1999/xlink" version="1.1" style="enable-background:new 0 0 841.9 595.3;" xml:space="preserve" width="674" height="198"><rect id="backgroundrect" width="100%" height="100%" x="0" y="0" fill="none" stroke="none"/>
<style type="text/css">
	.st0{fill:#00427C;}
	.st1{fill:none;}
	.st2{fill:#C6171E;}
	.st3{fill:#004179;}
	.st4{fill:#C62C1E;}
	.st5{fill:#FFFFFF;}
	.st6{fill:#FFFFFF;stroke:#00427C;stroke-miterlimit:10;}
	.st7{fill:none;stroke:#CE131C;stroke-width:3.9685;stroke-miterlimit:10;}
</style>

<g class="currentLayer" style=""><title>Layer 1</title><g id="svg_1" class="">
	<g id="svg_2">
		<path class="st3" d="M281.6000045776367,94.89999694824218 c-0.30000000000000004,-0.6000000000000001 -0.4,-1.5 -0.1,-2.2 c2.9,-7.3 5.7,-14.7 8.6,-22 c0.6000000000000001,-1.6 -0.30000000000000004,-3.3 -1.8,-3.2 c-3.3,0.1 -6.6,0.2 -9.9,0.4 c-0.8,0 -1.5,0.6000000000000001 -1.8,1.4 c-16.6,42.5 -33.1,84.5 -49.5,125.4 c-0.6000000000000001,1.5 0.4,3.2 1.8,3.2 c3.3,0 6.6,0 9.8,0 c0.8,0 1.5,-0.5 1.8,-1.3 c10.6,-26.6 21.3,-53.8 32,-81.1 c0.7000000000000001,-1.7000000000000002 2.7,-1.9 3.5,-0.30000000000000004 c13.5,26.8 26.9,54.1 40.3,81.5 c0.4,0.7000000000000001 1,1.2 1.7000000000000002,1.2 c4,0 8,0 11.9,0 c1.5,0 2.5,-2 1.7000000000000002,-3.5 C315.1000045776367,160.89999694824218 298.4000045776367,127.4999969482422 281.6000045776367,94.89999694824218 z" id="svg_3"/>
		<path class="st3" d="M105.50000457763673,172.89999694824218 c-1.1,0 -2.2,0.1 -3.3,0.1 c-1.1,0 -2,-0.8 -2,-1.9 c0,-4.7 -0.1,-9.4 -0.1,-14 c0,-1.1 0.9,-2 1.9,-2.1 c1.1,-0.1 2.2,-0.1 3.3,-0.2 c1.1,-0.1 2,-1 1.9,-2.1 c0,-1.3 0,-2.7 0,-4 c0,-1.1 -0.9,-1.9 -2,-1.9 c-1.1,0.1 -2.2,0.2 -3.3,0.2 c-1.1,0.1 -2,-0.7000000000000001 -2,-1.8 c-0.1,-7.3 -0.1,-14.7 -0.2,-22 c0,-1.1 -0.9,-1.9 -2,-1.8 c-23.8,2.7 -47.6,5.9 -71.3,9.5 c-1.1,0.2 -1.9,1.1 -1.9,2 c0,6.4 0,12.7 0.1,19.1 c0,1 -0.9,1.8 -1.9,1.9 c-1.3,0.1 -2.6,0.30000000000000004 -4,0.4 c-0.7000000000000001,0.1 -1.3,0.5 -1.7000000000000002,1 C11.500004577636716,164.1999969482422 7.400004577636722,169.1999969482422 1.7000045776367188,177.1999969482422 c-1.3,1.8 -1.6,3.1 -1.6,4.7 c0,3.3 0,6.3 0,9.6 c0,1.7000000000000002 2.7,2.2 3.7,0.7000000000000001 c4.5,-6.8 9.1,-13.9 13.6,-21.2 c0.2,-0.30000000000000004 0.30000000000000004,-0.6000000000000001 0.2,-0.8 c0,-2.4 0,-4.8 0,-7.2 c0,-0.9 0.9,-1.8 2,-1.9 c1.1,-0.1 2.2,-0.2 3.3,-0.30000000000000004 c1.1,-0.1 2,0.6000000000000001 2,1.6 c0,6.4 0,12.8 0.1,19.1 c0,1 0.9,1.7000000000000002 2,1.7000000000000002 c18.9,-0.6000000000000001 37.8,-1.2 56.7,-1.7000000000000002 c1.4,0 2.4,1.4 1.8,2.7 c-1.7000000000000002,3.6 -3.4,7.2 -5.1,10.8 c-0.6000000000000001,1.3 0.30000000000000004,2.7 1.8,2.7 c3.1,0 6.3,0 9.4,0 c0.8,0 1.4,-0.4 1.8,-1.1 c2.4,-5.1 4.8,-10.3 7.2,-15.6 c0,0 0,0 0,0 c1.8,0 3.5,-0.1 5.3,-0.1 c1.1,0 2,-0.9 1.9,-2.1 c0,-1.3 0,-2.7 0,-4 C107.50000457763673,173.7999969482422 106.60000457763672,172.89999694824218 105.50000457763673,172.89999694824218 zM36.40000457763672,138.39999694824218 c0,-1 0.9,-1.9 1.9,-2 c4.9,-0.6000000000000001 9.9,-1.3 14.8,-1.9 c1.1,-0.1 2,0.6000000000000001 2,1.6 c0,4.3 0,8.7 0.1,13 c0,1 -0.9,1.9 -1.9,2 c-5,0.4 -9.9,0.9 -14.9,1.4 c-1.1,0.1 -2,-0.6000000000000001 -2,-1.6 C36.500004577636716,146.6999969482422 36.40000457763672,142.4999969482422 36.40000457763672,138.39999694824218 zM53.40000457763671,174.9999969482422 c-5,0.2 -9.9,0.4 -14.9,0.7000000000000001 c-1.1,0 -2,-0.7000000000000001 -2,-1.7000000000000002 c0,-4.2 0,-8.3 -0.1,-12.5 c0,-1 0.9,-1.8 1.9,-1.9 c5,-0.4 9.9,-0.8 14.9,-1.2 c1.1,-0.1 2,0.7000000000000001 2,1.7000000000000002 c0,4.3 0,8.7 0.1,13 C55.40000457763671,174.09999694824216 54.50000457763673,174.9999969482422 53.40000457763671,174.9999969482422 zM67.00000457763673,134.6999969482422 c0,-1 0.9,-2 1.9,-2.1 c5.8,-0.7000000000000001 11.5,-1.3 17.3,-1.9 c1.1,-0.1 2,0.7000000000000001 2,1.7000000000000002 c0,4.6 0.1,9.2 0.1,13.8 c0,1.1 -0.9,2 -1.9,2.1 c-5.8,0.5 -11.5,0.9 -17.3,1.4 c-1.1,0.1 -2,-0.7000000000000001 -2,-1.7000000000000002 C67.00000457763673,143.4999969482422 67.00000457763673,139.09999694824216 67.00000457763673,134.6999969482422 zM86.50000457763673,173.59999694824216 c-5.8,0.2 -11.5,0.5 -17.3,0.7000000000000001 c-1.1,0 -2,-0.8 -2,-1.8 c0,-4.4 -0.1,-8.9 -0.1,-13.3 c0,-1 0.9,-1.9 1.9,-2 c5.8,-0.4 11.5,-0.8 17.3,-1.2 c1.1,-0.1 2,0.7000000000000001 2,1.8 c0,4.6 0.1,9.2 0.1,13.8 C88.40000457763671,172.6999969482422 87.60000457763672,173.59999694824216 86.50000457763673,173.59999694824216 z" id="svg_4"/>
		<g id="svg_5">
			<path class="st4" d="M364.7000045776367,127.89999694824218 c-0.8,-0.9 -2,-0.9 -2.8,0 c-3.4,4 -6.8,8 -10.3,12.1 c-0.8,0.9 -0.8,2.4 0,3.3 c3.4,4.1 6.8,8.1 10.2,12.2 c0.8,0.9 2,0.9 2.8,0 c3.4,-4 6.8,-8 10.3,-12 c0.8,-0.9 0.8,-2.4 0,-3.3 C371.6000045776367,135.9999969482422 368.2000045776367,131.89999694824218 364.7000045776367,127.89999694824218 zM369.4000045776367,140.4999969482422 c-0.7000000000000001,0.1 -3.8,-2.7 -4.5,-3.3 c-1.2,-0.9 -2.4,-1 -3.7,0.4 c-0.7000000000000001,0.8 -1.7000000000000002,1.4 -2.3,2 c-2.1,1.7000000000000002 -2.3,0.8 -1.7000000000000002,0 c1.6,-2.1 4.4,-5.9 5.7,-6.5 c1.5,-0.7000000000000001 3.7,2.5 5.5,4.8 C368.9000045776367,138.59999694824216 370.50000457763673,140.39999694824218 369.4000045776367,140.4999969482422 z" id="svg_6"/>
			<path class="st4" d="M362.00000457763673,117.19999694824219 c0.8,0.9 2,0.9 2.8,0 c3.4,-4 6.8,-8 10.3,-11.9 c0.8,-0.9 0.8,-2.4 0,-3.3 c-3.4,-4.1 -6.8,-8.2 -10.2,-12.3 c-0.8,-0.9 -2,-0.9 -2.8,0 c-3.4,4 -6.9,8 -10.3,12 c-0.8,0.9 -0.8,2.4 0,3.3 C355.1000045776367,108.9999969482422 358.6000045776367,113.09999694824216 362.00000457763673,117.19999694824219 zM357.1000045776367,100.69999694824219 c1.6,-2.1 4.4,-5.9 5.7,-6.5 c1.5,-0.7000000000000001 3.7,2.5 5.5,4.8 c0.6000000000000001,0.7000000000000001 2.2,2.4 1.1,2.6 c-0.7000000000000001,0.1 -3.8,-2.7 -4.5,-3.3 c-1.2,-0.9 -2.4,-1 -3.7,0.4 c-0.7000000000000001,0.8 -1.7000000000000002,1.4 -2.3,2 C356.7000045776367,102.39999694824218 356.50000457763673,101.39999694824218 357.1000045776367,100.69999694824219 z" id="svg_7"/>
		</g>
		<path class="st3" d="M0.7000045776367188,118.09999694824216 c4.5,2.1 9,4.4 13.5,6.8 c1.3,0.7000000000000001 3.2,-0.4 3.2,-1.9 c0,-1.9 0,-3.8 0,-5.7 c0,-0.5 -0.2,-0.9 -0.6000000000000001,-1.1 c-4.5,-2.8 -9,-5.4 -13.5,-7.9 c-1.2,-0.7000000000000001 -3.3,0.5 -3.3,1.9 c0,2.2 0,4.5 0,6.7 C0.000004577636715907829,117.4999969482422 0.30000457763671307,117.89999694824218 0.7000045776367188,118.09999694824216 z" id="svg_8"/>
		<path class="st3" d="M0.7000045776367188,140.6999969482422 c4.5,2.4 9,4.9 13.6,7.6 c1.3,0.7000000000000001 3.2,-0.30000000000000004 3.2,-1.7000000000000002 c0,-1.9 0,-3.8 0,-5.7 c0,-0.5 -0.2,-0.9 -0.6000000000000001,-1.2 c-4.5,-3 -9.1,-5.9 -13.6,-8.7 c-1.2,-0.8 -3.3,0.30000000000000004 -3.3,1.8 c0,0.8 0,5.9 0,6.7 C0.000004577636715907829,139.9999969482422 0.30000457763671307,140.4999969482422 0.7000045776367188,140.6999969482422 z" id="svg_9"/>
		<path class="st3" d="M449.6000045776367,99.39999694824218 c-2.3,-0.1 -4.6,-0.30000000000000004 -6.8,-0.4 c-1.1,-0.1 -2,-1.1 -2,-2.4 c0,-8 0.1,-16 0.1,-24 c0,-1.3 -0.9,-2.3 -2,-2.4 c-3.3,-0.2 -6.6,-0.5 -9.9,-0.7000000000000001 c-1.1,-0.1 -2,0.9 -2,2.2 c0,8.1 -0.1,16.1 -0.1,24.2 c0,1.3 -0.9,2.2 -2,2.2 c-9.1,-0.4 -18.2,-0.8 -27.3,-1.1 c-1.1,0 -2,1 -2,2.3 c0,3.3 0,6.5 0,9.8 c0,1.3 0.9,2.3 2,2.4 c7.8,0.2 15.5,0.5 23.3,0.8 c1.4,0.1 2.4,1.8 1.8,3.3 c-10.7,26 -21.3,52.4 -31.9,79.1 c-0.6000000000000001,1.5 0.30000000000000004,3.3 1.8,3.3 c3.2,0 6.3,0 9.5,0 c0.8,0 1.5,-0.5 1.8,-1.3 c6.4,-15.9 12.8,-31.8 19.1,-47.4 c0.9,-2.2 3.8,-1.4 3.7,1.1 c-0.1,15.1 -0.1,30.3 -0.2,45.4 c0,1.3 0.9,2.3 2,2.3 c3.3,0 6.6,0 9.9,0 c1.1,0 2,-1 2,-2.3 c0.1,-26.8 0.30000000000000004,-53.5 0.4,-80.3 c0,-1.3 0.9,-2.2 2,-2.2 c2.3,0.1 4.6,0.2 6.8,0.30000000000000004 c1.1,0.1 2,-0.9 2,-2.2 c0,-3.2 0,-6.3 0.1,-9.5 C451.6000045776367,100.4999969482422 450.7000045776367,99.4999969482422 449.6000045776367,99.39999694824218 z" id="svg_10"/>
		<path class="st3" d="M194.30000457763674,109.19999694824219 c-0.2,-0.30000000000000004 -0.30000000000000004,-0.8 -0.30000000000000004,-1.2 c-0.1,-10.7 -0.1,-21.4 -0.2,-32 c0,-1.2 -0.9,-2.1 -2,-2 c-3.3,0.30000000000000004 -6.6,0.7000000000000001 -9.9,1 c-1.1,0.1 -2,1.2 -2,2.4 c0.30000000000000004,39.4 0.6000000000000001,78.8 0.8,118.2 c0,1.2 0.9,2.2 2,2.2 c3.3,0 6.6,0 9.9,0 c1.1,0 2,-1 1.9,-2.2 c-0.1,-17.8 -0.2,-35.5 -0.4,-53.3 c0,-2.2 2.5,-3.2 3.6,-1.4 c8,12.6 14.4,23.5 22.6,36.4 c1.4,2.2 3.4,2.7 4.4,0.7000000000000001 c1.1,-2.2 2.3,-4.5 3.3,-6.9 c1.2,-2.8 0.8,-4.9 -0.1,-6.6 C217.80000457763674,147.2999969482422 204.50000457763673,125.4999969482422 194.30000457763674,109.19999694824219 z" id="svg_11"/>
		<path class="st3" d="M557.4000045776368,109.09999694824216 c-13.5,-1.6 -27,-3.1 -40.6,-4.4 c-1.1,-0.1 -2,-1.1 -2,-2.3 c0.1,-7.5 0.1,-15.1 0.2,-22.6 c0,-1.2 -0.9,-2.3 -2,-2.4 c-3.3,-0.4 -6.6,-0.8 -9.9,-1.2 c-1.1,-0.1 -2,0.7000000000000001 -2,1.9 c-0.1,7.6 -0.1,15.3 -0.2,22.9 c0,1.2 -0.9,2.1 -2,2 c-13.6,-1.2 -27.1,-2.2 -40.7,-3.1 c-1.1,-0.1 -2,0.9 -2,2.1 c0,3.2 0,6.3 -0.1,9.5 c0,1.2 0.9,2.3 2,2.4 c13.6,0.8 27.1,1.7000000000000002 40.7,2.7 c1.1,0.1 2,1.1 2,2.3 c0,3.8 -0.1,7.5 -0.1,11.3 c0,1.2 -0.9,2.1 -2,2.1 c-8.9,-0.5 -17.8,-1 -26.7,-1.5 c-1.7000000000000002,-0.1 -2.6,2.2 -1.5,3.7 c2.6,3.2 2.6,3.3 5.2,6.6 c0.4,0.5 0.9,0.7000000000000001 1.4,0.8 c11.7,0.5 29.5,1.7000000000000002 41.3,2.3 c1,0.1 1.5,1.3 0.8,2.1 c-2.5,2.8 -8.5,8 -11,10.9 c-0.8,0.9 -2.1,0.8 -2.8,-0.1 c-1.5,-1.8 -4,-4.2 -5.6,-6 c-0.7000000000000001,-0.8 -1.7000000000000002,-1.3 -2.7,-1.3 c-3.7,-0.2 -7.3,-0.30000000000000004 -11,-0.5 c-1.7000000000000002,-0.1 -2.6,2.2 -1.4,3.7 c3.8,4.5 8.4,9.7 12.2,14.2 c0.7000000000000001,0.9 0.7000000000000001,2.2 0,3 c-6.8,7.9 -13.6,15.9 -20.4,24.1 c-1.2,1.4 -0.30000000000000004,3.7 1.4,3.7 c4.5,0 9,0 13.5,0 c0.5,0 1.1,-0.30000000000000004 1.4,-0.7000000000000001 c4.5,-5.3 8.9,-10.5 13.4,-15.7 c0.8,-0.9 2.1,-0.9 2.9,0 c4.6,5.3 9.1,10.6 13.7,15.7 c0.4,0.4 0.9,0.7000000000000001 1.4,0.7000000000000001 c4.4,0 8.8,0 13.2,0 c1.8,0 2.6,-2.2 1.4,-3.6 c-7,-7.5 -14,-15.3 -21,-23.1 c-0.7000000000000001,-0.8 -0.8,-2.1 0,-3 c8.9,-10.1 17.8,-19.8 26.8,-29.2 c1.2,-1.2 0.30000000000000004,-3.5 -1.4,-3.6 c-8.9,-0.7000000000000001 -17.8,-1.3 -26.7,-1.9 c-1.1,-0.1 -2,-1.1 -2,-2.3 c0,-3.7 0.1,-7.4 0.1,-11.2 c0,-1.2 0.9,-2.1 2,-2 c13.5,1.1 27.1,2.4 40.6,3.8 c1.1,0.1 2,-0.7000000000000001 2,-1.8 c0,-2.8 0,-5.7 0.1,-8.5 C559.4000045776368,110.29999694824221 558.5000045776367,109.29999694824221 557.4000045776368,109.09999694824216 z" id="svg_12"/>
		<path class="st3" d="M386.4000045776367,67.4999969482422 c-15.3,-0.5 -30.7,-0.8 -46,-0.8 c-1.1,0 -2,1 -2,2.3 c0,35.6 0,71.2 0,106.9 c0,1.3 0.9,2.3 2,2.3 c2.2,0 4.3,0 6.5,0 c1.4,0 2.4,1.8 1.8,3.3 c-1.7000000000000002,4.3 -3.5,8.6 -5.2,13 c-0.6000000000000001,1.6 0.30000000000000004,3.3 1.8,3.3 c3.2,0 6.3,0 9.5,0 c0.7000000000000001,0 1.4,-0.5 1.8,-1.3 c1.9,-4.6 3.7,-9.3 5.6,-13.9 c0.7000000000000001,-1.8 2.8,-1.7000000000000002 3.5,0 c1.9,4.6 3.7,9.3 5.6,13.9 c0.30000000000000004,0.8 1,1.3 1.8,1.3 c3.1,0 6.3,0 9.4,0 c1.4,0 2.4,-1.8 1.8,-3.3 c-1.7000000000000002,-4.3 -3.4,-8.6 -5.2,-12.9 c-0.6000000000000001,-1.5 0.30000000000000004,-3.3 1.8,-3.3 c1.8,0 3.6,0 5.4,0 c1.1,0 2,-1 2,-2.3 c0.1,-35.4 0.2,-70.7 0.30000000000000004,-106.1 C388.4000045776367,68.5999969482422 387.50000457763673,67.4999969482422 386.4000045776367,67.4999969482422 zM376.4000045776367,103.59999694824216 c0,12.7 -0.1,25.4 -0.1,38.1 c0,8.3 0,16.6 -0.1,24.8 c0,1.3 -0.9,2.3 -2,2.3 c-7.4,0 -14.7,-0.1 -22.1,-0.1 c-1.1,0 -2,-1 -2,-2.3 c0,-8.3 0,-16.6 0,-24.9 c0,-12.7 0,-25.5 0,-38.2 c0,-8.3 0,-16.6 0,-24.9 c0,-1.3 0.9,-2.3 2,-2.3 c7.4,0.1 14.8,0.2 22.2,0.4 c1.1,0 2,1.1 2,2.4 C376.50000457763673,87.0999969482422 376.4000045776367,95.29999694824218 376.4000045776367,103.59999694824216 z" id="svg_13"/>
		<path class="st3" d="M26.600004577636724,124.39999694824218 c23.7,-3.9 47.5,-7.4 71.3,-10.4 c1.1,-0.1 2,-1.1 1.9,-2.2 c0,-2.3 0,-4.5 -0.1,-6.8 c0,-1.1 -0.9,-1.9 -2,-1.7000000000000002 c-18.9,2.7 -37.7,5.7 -56.4,9 c-1.4,0.30000000000000004 -2.4,-0.9 -1.8,-2.2 c1.7000000000000002,-3.6 3.4,-7.3 5.1,-10.9 c0.6000000000000001,-1.3 -0.30000000000000004,-2.5 -1.8,-2.2 c-3.1,0.6000000000000001 -6.2,1.3 -9.3,2 c-0.7000000000000001,0.2 -1.4,0.7000000000000001 -1.8,1.4 c-2.3,5 -4.7,9.9 -7,14.7 c-0.1,0.30000000000000004 -0.2,0.5 -0.2,0.8 c0,2.4 0,4.8 0,7.2 C24.600004577636724,123.9999969482422 25.500004577636716,124.59999694824216 26.600004577636724,124.39999694824218 z" id="svg_14"/>
		<path class="st3" d="M668.2000045776367,117.39999694824218 c-2.1,-0.4 -4.3,-0.9 -6.4,-1.3 c-0.8,-0.2 -1.5,0.1 -1.8,0.6000000000000001 c-2,3.2 -4,6.5 -5.9,9.9 c-0.6000000000000001,1 0.30000000000000004,2.5 1.8,2.7 c2.1,0.30000000000000004 4.3,0.7000000000000001 6.4,1 c0.8,0.1 1.5,-0.1 1.8,-0.7000000000000001 c2,-3.3 4,-6.5 5.9,-9.6 C670.6000045776367,119.19999694824219 669.6000045776367,117.69999694824219 668.2000045776367,117.39999694824218 z" id="svg_15"/>
		<path class="st3" d="M635.2000045776367,110.9999969482422 c-2.1,-0.4 -4.3,-0.8 -6.4,-1.2 c-1.4,-0.30000000000000004 -2.4,1 -1.8,2.3 c2,4.2 3.9,8.4 5.9,12.6 c0.30000000000000004,0.7000000000000001 1,1.2 1.8,1.3 c2.1,0.30000000000000004 4.3,0.6000000000000001 6.4,1 c1.4,0.2 2.4,-1 1.8,-2.3 c-2,-4.1 -3.9,-8.2 -5.9,-12.4 C636.6000045776367,111.69999694824219 635.9000045776368,111.19999694824219 635.2000045776367,110.9999969482422 z" id="svg_16"/>
		<path class="st3" d="M617.0000045776367,107.79999694824221 c-2.1,-0.4 -4.3,-0.7000000000000001 -6.4,-1.1 c-1.4,-0.2 -2.4,1 -1.8,2.4 c2,4.4 3.9,8.7 5.9,12.9 c0.30000000000000004,0.7000000000000001 1,1.2 1.8,1.3 c2.1,0.30000000000000004 4.3,0.6000000000000001 6.4,0.9 c1.4,0.2 2.4,-1.1 1.8,-2.4 c-2,-4.2 -3.9,-8.5 -5.9,-12.8 C618.4000045776368,108.4999969482422 617.7000045776367,107.89999694824218 617.0000045776367,107.79999694824221 z" id="svg_17"/>
		<path class="st3" d="M609.4000045776368,102.69999694824219 c20.1,3.5 40.1,7.3 60,11.6 c1.1,0.2 1.9,-0.30000000000000004 1.9,-1.2 c0,-1.9 0,-3.7 0,-5.6 c0,-0.9 -0.9,-1.8 -1.9,-2.1 c-2.7,-0.6000000000000001 -5.3,-1.2 -8,-1.9 c-0.7000000000000001,-0.2 -1.3,0.2 -1.3,0.8 c0,0.6000000000000001 -0.6000000000000001,1 -1.3,0.8 c-16.4,-3.7 -32.9,-7 -49.4,-10.1 c-1.1,-0.2 -1.9,0.5 -1.9,1.5 c0,1.3 0,2.7 0,4 C607.5000045776367,101.4999969482422 608.3000045776367,102.4999969482422 609.4000045776368,102.69999694824219 z" id="svg_18"/>
		<path class="st3" d="M602.0000045776367,148.39999694824218 c0,-1.3 0,-2.6 0,-3.9 c0,-1.5 -1.6,-2.5 -2.9,-1.9 c-2.1,1 -4.2,1.9 -6.3,2.9 c-1.3,0.6000000000000001 -2.9,-0.5 -2.9,-1.9 c0,-5.4 0.1,-10.8 0.1,-16.2 c0,-1.1 0.9,-1.8 2,-1.7000000000000002 c2.7,0.30000000000000004 5.5,0.7000000000000001 8.2,1 c1.1,0.1 2,-0.6000000000000001 2,-1.7000000000000002 c0,-2.7 0,-5.3 0.1,-8 c0,-1 -0.9,-2 -1.9,-2.2 c-2.7,-0.4 -5.5,-0.8 -8.2,-1.2 c-1.1,-0.1 -2,-1.1 -1.9,-2.2 c0,-6.8 0.1,-13.7 0.1,-20.5 c0,-1.1 -0.9,-2.1 -1.9,-2.3 c-3.3,-0.6000000000000001 -6.5,-1.1 -9.8,-1.7000000000000002 c-1.1,-0.2 -2,0.6000000000000001 -2,1.7000000000000002 c-0.1,7 -0.1,14 -0.2,20.9 c0,1.1 -0.9,1.9 -2,1.7000000000000002 c-2.7,-0.4 -5.5,-0.7000000000000001 -8.2,-1 c-1.1,-0.1 -2,0.7000000000000001 -2,1.8 c0,2.8 0,5.7 -0.1,8.5 c0,1.1 0.9,2.1 1.9,2.2 c2.7,0.30000000000000004 5.5,0.6000000000000001 8.2,0.9 c1.1,0.1 2,1.1 1.9,2.2 c-0.1,8.9 -0.1,17.8 -0.2,26.7 c0,0.7000000000000001 -0.4,1.3 -1,1.7000000000000002 c-3.4,1.7000000000000002 -6.8,3.5 -10.2,5.2 c-0.6000000000000001,0.30000000000000004 -1,1 -1,1.7000000000000002 c0,4.5 -0.1,9.1 -0.1,13.6 c0,1.7000000000000002 1.9,2.7 3.2,1.6 c1.9,-1.6 3.8,-3.1 5.7,-4.7 c1.3,-1 3.2,0 3.2,1.6 c-0.1,7.5 -0.1,15 -0.2,22.4 c0,1.1 0.9,2 2,2 c3.3,0 6.6,0 9.9,0 c1.1,0 2,-0.9 2,-1.9 c0.1,-12.2 0.2,-24.4 0.30000000000000004,-36.6 c0,-0.6000000000000001 0.30000000000000004,-1.1 0.7000000000000001,-1.4 c3.6,-2.7 7.2,-5.4 10.8,-8 C601.7000045776367,149.4999969482422 602.0000045776367,148.9999969482422 602.0000045776367,148.39999694824218 z" id="svg_19"/>
		<path class="st3" d="M176.80000457763674,92.9999969482422 c-10.4,1 -20.8,2.1 -31.2,3.3 c-1.4,0.2 -2.4,-1.3 -1.8,-2.8 c1.6,-3.8 3.2,-7.7 4.7,-11.5 c0.6000000000000001,-1.5 -0.4,-3 -1.8,-2.8 c-3.2,0.4 -6.3,0.8 -9.4,1.3 c-0.8,0.1 -1.4,0.7000000000000001 -1.8,1.4 c-7.8,18.7 -15.6,37 -23.4,54.7 c-0.6000000000000001,1.4 0.30000000000000004,2.9 1.8,2.8 c3.2,-0.30000000000000004 6.5,-0.5 9.7,-0.8 c0.8,-0.1 1.4,-0.6000000000000001 1.8,-1.3 c0.5,-1.1 0.9,-2.2 1.4,-3.3 c0.6000000000000001,-1.3 2.1,-1.8 3.1,-0.9 c4.4,3.9 8.9,8 13.3,12.1 c0.6000000000000001,0.6000000000000001 0.8,1.6 0.5,2.4 c-6.8,16.1 -13.6,31.9 -20.3,47.2 c-0.6000000000000001,1.4 0.4,2.9 1.8,2.9 c3.3,0 6.6,0 9.8,0 c0.8,0 1.5,-0.5 1.8,-1.2 c13.9,-32.1 27.9,-65.8 41.9,-100.6 C179.20000457763672,94.4999969482422 178.30000457763674,92.89999694824218 176.80000457763674,92.9999969482422 zM159.50000457763673,109.39999694824218 c-3.2,8 -6.5,15.9 -9.7,23.7 c-0.6000000000000001,1.3 -2.1,1.8 -3.1,0.9 c-4.4,-4.1 -8.8,-8 -13.3,-11.9 c-0.6000000000000001,-0.6000000000000001 -0.8,-1.5 -0.5,-2.4 c1.4,-3.3 2.8,-6.5 4.1,-9.8 c0.30000000000000004,-0.8 1,-1.3 1.8,-1.4 c6.3,-0.7000000000000001 12.6,-1.3 18.9,-1.9 C159.10000457763672,106.39999694824218 160.10000457763672,107.9999969482422 159.50000457763673,109.39999694824218 z" id="svg_20"/>
		<path class="st3" d="M673.5000045776367,194.89999694824218 c-6.6,-4.1 -13.2,-8.4 -19.8,-12.9 c-1,-0.7000000000000001 -1,-2 -0.1,-2.7 c5.7,-3.9 11.3,-7.7 17,-11.3 c0.4,-0.30000000000000004 0.7000000000000001,-0.7000000000000001 0.7000000000000001,-1.2 c0,-1.5 0,-2.9 0,-4.4 c0,-0.9 -0.9,-1.7000000000000002 -1.9,-1.8 c-12.5,-1.2 -25.1,-2.3 -37.7,-3.3 c-1.4,-0.1 -2.3,-1.5 -1.7000000000000002,-2.7 c0.5,-1 1.1,-2 1.6,-3 c0.30000000000000004,-0.6000000000000001 1,-0.9 1.8,-0.9 c12,1.2 24.1,2.4 36.1,3.7 c1.1,0.1 1.9,-0.5 1.9,-1.4 c0,-1.2 0,-2.3 0,-3.5 c0,-0.9 -0.9,-1.7000000000000002 -1.9,-1.9 c-10.2,-1.3 -20.3,-2.5 -30.5,-3.7 c-1.4,-0.2 -2.3,-1.6 -1.7000000000000002,-2.7 c0.5,-1 1.1,-1.9 1.6,-2.9 c0.30000000000000004,-0.6000000000000001 1,-0.9 1.8,-0.8 c9.6,1.3 19.3,2.6 28.9,3.9 c1.1,0.2 1.9,-0.4 1.9,-1.3 c0,-1.2 0,-2.3 0,-3.5 c0,-0.9 -0.9,-1.8 -1.9,-1.9 c-8.8,-1.4 -17.6,-2.8 -26.4,-4 c-4.6,-0.7000000000000001 -9.1,-1.3 -13.7,-2 c-6.8,-0.9 -13.6,-1.9 -20.3,-2.7 c-1.1,-0.1 -1.9,0.6000000000000001 -1.9,1.6 c0,1.3 0,2.7 0,4 c0,1 0.9,2 1.9,2.1 c4.5,0.5 9.1,1.1 13.6,1.6 c1.4,0.2 2.3,1.7000000000000002 1.7000000000000002,2.8 c-0.5,1 -1.1,2 -1.6,3 c-0.30000000000000004,0.6000000000000001 -1,0.9 -1.8,0.9 c-4,-0.4 -8,-0.9 -12,-1.3 c-1.1,-0.1 -1.9,0.6000000000000001 -1.9,1.7000000000000002 c0,1.3 0,2.7 0,4 c0,1 0.9,1.9 1.9,2 c2.2,0.2 4.3,0.4 6.5,0.6000000000000001 c1.4,0.1 2.3,1.6 1.7000000000000002,2.8 c-2,3.8 -4,7.6 -5.9,11.5 c0,0 0,0 0,0 c-5.2,10.3 -10.5,20.8 -15.8,31.7 c-0.6000000000000001,1.3 0.30000000000000004,2.7 1.7000000000000002,2.7 c3.2,0 6.3,0 9.5,0 c0.8,0 1.4,-0.4 1.8,-1.1 c4.4,-9 8.8,-17.7 13.3,-26.2 c0.6000000000000001,-1.1 2.1,-1.3 3,-0.4 c3,2.7 6,5.3 9,7.8 c0.9,0.7000000000000001 0.9,2 0,2.6 c-5.8,4.5 -11.6,9.2 -17.3,14.1 c-1.3,1.1 -0.5,3.2 1.3,3.2 c3.4,0 6.7,0 10.1,0 c0.5,0 0.9,-0.1 1.3,-0.4 c4.5,-3.5 9,-6.8 13.5,-10.1 c0.7000000000000001,-0.5 1.8,-0.5 2.5,0.1 c4.2,3.4 8.4,6.8 12.7,10 c0.4,0.30000000000000004 0.8,0.4 1.3,0.4 c4.5,0 8.9,0 13.4,0 C674.2000045776367,197.7999969482422 675.0000045776367,195.7999969482422 673.5000045776367,194.89999694824218 zM649.0000045776367,168.9999969482422 c-1.9,1.4 -3.7,2.7 -5.6,4.1 c-0.7000000000000001,0.5 -1.7000000000000002,0.5 -2.4,0 c-1.9,-1.4 -3.9,-2.8 -5.8,-4.2 c-0.30000000000000004,-0.2 -0.7000000000000001,-0.4 -1.1,-0.4 c-2.7,-0.2 -5.3,-0.30000000000000004 -8,-0.5 c-1.4,-0.1 -2.3,-1.5 -1.7000000000000002,-2.7 c0.30000000000000004,-0.6000000000000001 1,-1 1.8,-0.9 c7.2,0.5 14.4,1 21.7,1.5 C649.5000045776367,165.9999969482422 650.3000045776367,167.9999969482422 649.0000045776367,168.9999969482422 z" id="svg_21"/>
	</g>
	<g id="svg_22">
		<path class="st3" d="M66.00000457763673,32.69999694824219 c-3.2,0.7000000000000001 -6.4,1.5 -9.6,2.3 c0,3.5 0,7 0,10.4 c3.1,-0.7000000000000001 6.2,-1.5 9.4,-2.2 c0,0.6000000000000001 0,1.2 0,1.7000000000000002 c-3.1,0.7000000000000001 -6.2,1.5 -9.4,2.2 c0,5 0,9.9 0,14.9 c-0.6000000000000001,0.1 -1.2,0.30000000000000004 -1.9,0.4 c0,-9.6 0,-19.2 0,-28.8 c3.8,-0.9 7.7,-1.8 11.5,-2.7 C66.00000457763673,31.4999969482422 66.00000457763673,32.09999694824219 66.00000457763673,32.69999694824219 z" id="svg_23"/>
		<path class="st3" d="M88.90000457763671,45.899996948242176 c0,5.2 -4,10.1 -9.1,11.2 c-5.2,1.1 -9.1,-2 -9.1,-7.2 c0,-5.2 4,-10.1 9.1,-11.3 C84.90000457763671,37.4999969482422 88.90000457763671,40.69999694824219 88.90000457763671,45.899996948242176 zM87.10000457763672,46.29999694824218 c0,-4.3 -3.2,-6.9 -7.3,-6 c-4.2,0.9 -7.3,4.9 -7.3,9.2 c0,4.3 3.2,6.9 7.3,6 C83.90000457763671,54.59999694824219 87.10000457763672,50.59999694824219 87.10000457763672,46.29999694824218 z" id="svg_24"/>
		<path class="st3" d="M94.40000457763671,35.899996948242176 c0.6000000000000001,-0.1 1.1,-0.2 1.7000000000000002,-0.30000000000000004 c0,0.8 0,1.5 0,2.3 c0.6000000000000001,-1.6 2,-3.1 3.9,-3.5 c0.5,-0.1 1.2,-0.2 1.8,0.1 c-0.30000000000000004,0.6000000000000001 -0.6000000000000001,1.1 -0.9,1.7000000000000002 c-0.2,-0.1 -0.5,-0.2 -1.3,-0.1 c-3.5,0.7000000000000001 -3.6,5.4 -3.6,7.6 c0,3.2 0,6.3 0,9.5 c-0.6000000000000001,0.1 -1.1,0.2 -1.7000000000000002,0.30000000000000004 C94.40000457763671,47.69999694824219 94.40000457763671,41.79999694824218 94.40000457763671,35.899996948242176 z" id="svg_25"/>
		<path class="st3" d="M107.10000457763672,42.399996948242176 c0,4.5 3.3,6.8 6.9,6.1 c2.8,-0.5 5,-2.6 6.1,-5.1 c0.5,0.2 1,0.4 1.5,0.6000000000000001 c-1,2.2 -3.3,5.4 -7.7,6.2 c-5.4,1 -8.6,-2.4 -8.6,-7.5 c0,-6.1 4.2,-10.1 8.5,-10.9 c4.7,-0.9 8.3,2.3 8.3,7.9 C117.10000457763672,40.4999969482422 112.10000457763672,41.4999969482422 107.10000457763672,42.399996948242176 zM120.30000457763671,38.29999694824218 c-0.4,-3.4 -3,-5.6 -6.5,-4.9 c-3.6,0.7000000000000001 -6.1,3.9 -6.6,7.4 C111.60000457763672,39.899996948242176 115.90000457763671,39.09999694824219 120.30000457763671,38.29999694824218 z" id="svg_26"/>
		<path class="st3" d="M127.40000457763671,23.799996948242182 c0,-0.9 0.7000000000000001,-1.7000000000000002 1.5,-1.9 c0.9,-0.2 1.5,0.4 1.5,1.3 c0,0.9 -0.7000000000000001,1.7000000000000002 -1.5,1.9 C128.10000457763672,25.299996948242182 127.40000457763671,24.799996948242182 127.40000457763671,23.799996948242182 zM129.8000045776367,29.199996948242188 c0,5.9 0,11.7 0,17.6 c-0.6000000000000001,0.1 -1.1,0.2 -1.7000000000000002,0.30000000000000004 c0,-5.9 0,-11.7 0,-17.6 C128.60000457763672,29.399996948242176 129.20000457763672,29.299996948242182 129.8000045776367,29.199996948242188 z" id="svg_27"/>
		<path class="st3" d="M152.8000045776367,25.4999969482422 c0,5.7 0,11.4 0,17.1 c0,6.6 -3.3,10.9 -8.8,11.8 c-4.6,0.7000000000000001 -8.4,-1.3 -8.6,-6.1 c0.6000000000000001,-0.1 1.2,-0.2 1.8,-0.30000000000000004 c0.30000000000000004,3.6 3.1,5.4 6.8,4.8 c6.9,-1.1 7.1,-8.1 7.1,-9.9 c0,-0.8 0,-1.7000000000000002 0,-2.5 c-1.8,2.7 -4.4,4.2 -6.9,4.6 c-4.3,0.7000000000000001 -8.6,-1.7000000000000002 -8.6,-7.8 c0,-5.1 3.4,-9.8 8.9,-10.7 c2.9,-0.5 5.2,0.5 6.7,2.4 c0,-1 0,-2 0,-3.1 C151.70000457763672,25.599996948242193 152.3000045776367,25.599996948242193 152.8000045776367,25.4999969482422 zM137.3000045776367,36.79999694824218 c0,4.2 2.7,7.1 6.8,6.4 c4.3,-0.7000000000000001 7.1,-4.5 7.1,-8.8 c0,-4.1 -2.7,-7.1 -7,-6.4 C139.9000045776367,28.799996948242182 137.3000045776367,32.79999694824218 137.3000045776367,36.79999694824218 z" id="svg_28"/>
		<path class="st3" d="M159.70000457763672,24.399996948242176 c0.6000000000000001,-0.1 1.1,-0.2 1.7000000000000002,-0.30000000000000004 c0,0.9 0,1.8 0,2.8 c0.8,-1.6 2.4,-3.5 5.4,-3.9 c3.1,-0.4 4.5,1.2 4.9,1.8 c0.8,1.1 0.9,2.8 0.9,4.3 c0,3.7 0,7.4 0,11.1 c-0.6000000000000001,0.1 -1.2,0.2 -1.7000000000000002,0.2 c0,-3.7 0,-7.4 0,-11.1 c0,-1.2 0,-2.5 -0.7000000000000001,-3.4 c-0.4,-0.6000000000000001 -1.3,-1.5 -3.5,-1.2 c-2.4,0.30000000000000004 -3.7,1.8 -4.3,3.1 c-0.8,1.5 -0.9,3.2 -0.9,4.9 c0,3 0,6.1 0,9.1 c-0.6000000000000001,0.1 -1.1,0.2 -1.7000000000000002,0.30000000000000004 C159.70000457763672,36.19999694824219 159.70000457763672,30.299996948242182 159.70000457763672,24.399996948242176 z" id="svg_29"/>
		<path class="st3" d="M193.80000457763674,20.899996948242176 c5.8,-0.7000000000000001 11.6,-1.4 17.5,-2 c0,-4.1 0,-8.1 0,-12.2 c0.6000000000000001,-0.1 1.3,-0.1 1.9,-0.2 c0,9.6 0,19.2 0,28.8 c-0.6000000000000001,0.1 -1.3,0.1 -1.9,0.2 c0,-4.9 0,-9.9 0,-14.8 c-5.8,0.6000000000000001 -11.7,1.3 -17.5,2 c0,4.9 0,9.9 0,14.8 c-0.6000000000000001,0.1 -1.3,0.2 -1.9,0.2 c0,-9.6 0,-19.2 0,-28.8 c0.6000000000000001,-0.1 1.3,-0.2 1.9,-0.2 C193.80000457763674,12.699996948242188 193.80000457763674,16.799996948242182 193.80000457763674,20.899996948242176 z" id="svg_30"/>
		<path class="st3" d="M222.4000045776367,16.799996948242182 c0,3.5 0,7.1 0,10.6 c0,1.3 0,3.1 1.1,4.3 c1.1,1.2 2.7,1.2 3.5,1.1 c0.8,-0.1 2.4,-0.4 3.5,-1.7000000000000002 c1.1,-1.4 1.1,-3.2 1.1,-4.5 c0,-3.5 0,-7.1 0,-10.6 c0.6000000000000001,-0.1 1.2,-0.1 1.7000000000000002,-0.2 c0,3.7 0,7.4 0,11.1 c0,1.4 -0.1,3.3 -1.3,5 c-1.3,1.8 -3.5,2.5 -5,2.6 c-1.6,0.1 -3.7,-0.1 -5,-1.7000000000000002 c-1.2,-1.4 -1.3,-3.3 -1.3,-4.7 c0,-3.7 0,-7.4 0,-11.1 C221.20000457763672,16.899996948242176 221.80000457763674,16.799996948242182 222.4000045776367,16.799996948242182 z" id="svg_31"/>
		<path class="st3" d="M240.30000457763674,15.199996948242188 c0.6000000000000001,0 1.2,-0.1 1.7000000000000002,-0.1 c0,0.7000000000000001 0,1.5 0,2.2 c1.3,-2.4 3.4,-2.9 4.6,-2.9 c3.5,-0.30000000000000004 4.6,1.9 4.9,2.8 c1,-2.2 2.9,-3.4 5.2,-3.6 c2,-0.1 3.2,0.5 4,1.2 c1.4,1.3 1.5,3.3 1.5,4.7 c0,3.9 0,7.8 0,11.7 c-0.6000000000000001,0 -1.2,0.1 -1.7000000000000002,0.1 c0,-3.9 0,-7.8 0,-11.7 c0,-1.2 -0.1,-2.6 -1,-3.6 c-0.8,-0.8 -1.8,-0.9 -2.6,-0.8 c-4.7,0.30000000000000004 -4.7,5 -4.7,6.1 c0,3.5 0,7.1 0,10.6 c-0.6000000000000001,0 -1.2,0.1 -1.7000000000000002,0.1 c0,-3.8 0,-7.5 0,-11.3 c0,-1.1 -0.1,-5 -3.9,-4.8 c-3.1,0.2 -4.5,3 -4.5,6.5 c0,3.4 0,6.8 0,10.2 c-0.6000000000000001,0 -1.2,0.1 -1.7000000000000002,0.1 C240.30000457763674,26.899996948242176 240.30000457763674,21.099996948242193 240.30000457763674,15.199996948242188 z" id="svg_32"/>
		<path class="st3" d="M283.7000045776367,12.499996948242199 c0.6000000000000001,0 1.2,-0.1 1.7000000000000002,-0.1 c0,5.9 0,11.7 0,17.6 c-0.6000000000000001,0 -1.2,0.1 -1.7000000000000002,0.1 c0,-1.1 0,-2.1 0,-3.2 c-1.8,2.8 -4.6,3.8 -6.9,4 c-4.6,0.2 -8.6,-3 -8.6,-8.8 c0,-5.4 3.5,-9.4 8.6,-9.7 c2.8,-0.1 5.2,0.8 6.9,3.1 C283.7000045776367,14.499996948242199 283.7000045776367,13.499996948242199 283.7000045776367,12.499996948242199 zM270.00000457763673,21.799996948242182 c0,4 2.5,7.6 6.9,7.4 c4.4,-0.2 6.9,-4 6.9,-8.1 c0,-5.2 -3.9,-7.2 -6.9,-7.1 C273.4000045776367,14.199996948242188 270.00000457763673,16.9999969482422 270.00000457763673,21.799996948242182 z" id="svg_33"/>
		<path class="st3" d="M293.30000457763674,12.099996948242193 c0.6000000000000001,0 1.2,0 1.7000000000000002,-0.1 c0,0.9 0,1.8 0,2.8 c0.8,-1.5 2.4,-3.2 5.4,-3.3 c3.2,-0.1 4.5,1.7000000000000002 4.9,2.3 c0.8,1.2 0.9,2.9 0.9,4.4 c0,3.7 0,7.4 0,11.1 c-0.6000000000000001,0 -1.2,0 -1.7000000000000002,0 c0,-3.7 0,-7.4 0,-11.1 c0,-1.2 0,-2.5 -0.7000000000000001,-3.5 c-0.4,-0.6000000000000001 -1.3,-1.7000000000000002 -3.5,-1.6 c-2.4,0.1 -3.7,1.4 -4.3,2.6 c-0.8,1.4 -1,3.1 -1,4.8 c0,3 0,6.1 0,9.1 c-0.6000000000000001,0 -1.2,0 -1.7000000000000002,0.1 C293.30000457763674,23.799996948242182 293.30000457763674,17.899996948242176 293.30000457763674,12.099996948242193 z" id="svg_34"/>
		<path class="st3" d="M337.80000457763674,28.799996948242182 c-3.1,-4.5 -6.3,-9 -9.4,-13.6 c-0.30000000000000004,0 -0.6000000000000001,0 -0.9,0 c0,4.5 0,9.1 0,13.6 c-0.6000000000000001,0 -1.3,0 -1.9,0 c0,-9.6 0,-19.2 0,-28.8 c1.4,0 2.8,0 4.2,0 c2.2,0 4.2,0.1 6.1,1.4 c2.3,1.5 3,3.9 3,6.2 c0,2.8 -1.3,5.8 -4.9,7 c-1.5,0.5 -2.9,0.6000000000000001 -3.6,0.6000000000000001 c3.2,4.5 6.3,9 9.5,13.6 C339.2000045776367,28.799996948242182 338.50000457763673,28.799996948242182 337.80000457763674,28.799996948242182 zM327.50000457763673,13.599996948242193 c0.9,0 1.9,0 2.8,0 c4.1,0 6.6,-2.2 6.6,-5.9 c0,-2.9 -1.4,-4.4 -2.6,-5 c-1.2,-0.7000000000000001 -3.3,-0.8 -4.4,-0.8 c-0.8,0 -1.6,0 -2.4,0 C327.50000457763673,5.6999969482421875 327.50000457763673,9.599996948242193 327.50000457763673,13.599996948242193 z" id="svg_35"/>
		<path class="st3" d="M346.1000045776367,20.299996948242182 c0,4.5 3.3,7.4 7,7.5 c2.9,0 5,-1.6 6.2,-3.9 c0.5,0.30000000000000004 1,0.6000000000000001 1.5,0.9 c-1,2 -3.4,4.7 -7.8,4.7 c-5.5,-0.1 -8.7,-4.1 -8.7,-9.3 c0,-6.1 4.3,-9.3 8.6,-9.2 c4.8,0.1 8.4,3.9 8.4,9.5 C356.2000045776367,20.399996948242176 351.2000045776367,20.299996948242182 346.1000045776367,20.299996948242182 zM359.50000457763673,18.799996948242182 c-0.4,-3.5 -3,-6.2 -6.6,-6.2 c-3.6,0 -6.2,2.7 -6.6,6.1 C350.7000045776367,18.699996948242188 355.1000045776367,18.699996948242188 359.50000457763673,18.799996948242182 z" id="svg_36"/>
		<path class="st3" d="M375.30000457763674,14.999996948242199 c-0.6000000000000001,-1.4 -1.8,-2 -3.1,-2.1 c-2,-0.1 -3,1.4 -3,2.7 c0,1.7000000000000002 1.4,2.3 3.1,3.1 c1.8,0.7000000000000001 3.4,1.3 4.6,2.7 c0.7000000000000001,0.9 0.9,1.9 0.9,2.9 c0,4 -3,5.5 -5.8,5.4 c-3,-0.1 -5.4,-1.9 -6.1,-4.8 c0.6000000000000001,-0.2 1.1,-0.30000000000000004 1.7000000000000002,-0.5 c0.6000000000000001,2.3 2.5,3.6 4.4,3.7 c2.3,0.1 4,-1.5 4,-3.8 c0,-2 -1.3,-2.8 -4,-3.9 c-1.8,-0.8 -3.1,-1.4 -3.9,-2.4 c-0.4,-0.5 -0.8,-1.3 -0.8,-2.3 c0,-2.7 2,-4.5 4.7,-4.4 c2.1,0.1 3.8,1.1 4.6,3 C376.30000457763674,14.499996948242199 375.80000457763674,14.799996948242182 375.30000457763674,14.999996948242199 z" id="svg_37"/>
		<path class="st3" d="M401.7000045776367,21.699996948242188 c0,5.2 -4,9 -9.3,8.8 c-5.3,-0.2 -9.3,-4.4 -9.3,-9.6 c0,-5.2 4,-9.1 9.3,-8.9 C397.7000045776367,12.299996948242182 401.7000045776367,16.4999969482422 401.7000045776367,21.699996948242188 zM399.9000045776367,21.599996948242193 c0,-4.3 -3.2,-7.8 -7.5,-8 c-4.3,-0.2 -7.5,3 -7.5,7.3 c0,4.3 3.2,7.7 7.5,7.9 C396.7000045776367,29.099996948242193 399.9000045776367,25.899996948242176 399.9000045776367,21.599996948242193 z" id="svg_38"/>
		<path class="st3" d="M409.1000045776367,13.299996948242182 c0,3.5 0,7.1 0,10.6 c0,1.3 0,3.1 1.1,4.5 c1.1,1.4 2.7,1.6 3.5,1.6 c0.8,0.1 2.4,0 3.5,-1.2 c1.1,-1.2 1.1,-3.1 1.1,-4.3 c0,-3.5 0,-7.1 0,-10.6 c0.6000000000000001,0 1.2,0.1 1.7000000000000002,0.1 c0,3.7 0,7.4 0,11.1 c0,1.4 -0.1,3.3 -1.3,4.7 c-1.3,1.6 -3.5,1.9 -5,1.8 c-1.6,-0.1 -3.7,-0.7000000000000001 -5,-2.5 c-1.2,-1.6 -1.3,-3.5 -1.3,-4.9 c0,-3.7 0,-7.4 0,-11.1 C407.9000045776367,13.199996948242188 408.50000457763673,13.199996948242188 409.1000045776367,13.299996948242182 z" id="svg_39"/>
		<path class="st3" d="M427.7000045776367,14.499996948242199 c0.6000000000000001,0 1.2,0.1 1.7000000000000002,0.1 c0,0.8 0,1.5 0,2.3 c0.7000000000000001,-1.5 2,-2.5 3.9,-2.4 c0.5,0 1.2,0.2 1.9,0.6000000000000001 c-0.30000000000000004,0.5 -0.6000000000000001,1 -0.9,1.5 c-0.2,-0.1 -0.5,-0.4 -1.3,-0.4 c-3.6,-0.30000000000000004 -3.6,4.4 -3.6,6.6 c0,3.2 0,6.3 0,9.5 c-0.6000000000000001,0 -1.2,-0.1 -1.7000000000000002,-0.1 C427.7000045776367,26.199996948242188 427.7000045776367,20.399996948242176 427.7000045776367,14.499996948242199 z" id="svg_40"/>
		<path class="st3" d="M453.80000457763674,20.899996948242176 c-1.2,-1.4 -3.2,-3.2 -6.1,-3.5 c-4.3,-0.4 -7.4,2.7 -7.4,7 c0,5 3.9,7.9 7.3,8.2 c2.8,0.30000000000000004 5,-1.2 6.4,-2.6 c0,0.8 0,1.6 0,2.3 c-1.2,0.9 -3.3,2.1 -6.5,1.9 c-5.3,-0.5 -9.1,-4.7 -9.1,-9.9 c0,-5.2 3.5,-9 9.2,-8.5 c1.3,0.1 3.7,0.6000000000000001 6.1,2.8 C453.80000457763674,19.299996948242182 453.80000457763674,20.099996948242193 453.80000457763674,20.899996948242176 z" id="svg_41"/>
		<path class="st3" d="M460.80000457763674,26.399996948242176 c0,4.5 3.3,7.8 7,8.2 c2.9,0.30000000000000004 5,-1.1 6.1,-3.3 c0.5,0.30000000000000004 1,0.7000000000000001 1.5,1 c-1,1.9 -3.4,4.4 -7.7,3.9 c-5.5,-0.6000000000000001 -8.7,-5 -8.7,-10.1 c0,-6.1 4.2,-8.9 8.6,-8.4 c4.8,0.5 8.3,4.7 8.3,10.3 C470.90000457763676,27.4999969482422 465.90000457763676,26.899996948242176 460.80000457763674,26.399996948242176 zM474.1000045776367,26.199996948242188 c-0.4,-3.5 -3,-6.5 -6.5,-6.8 c-3.6,-0.4 -6.1,2.1 -6.6,5.4 C465.30000457763674,25.199996948242188 469.7000045776367,25.699996948242188 474.1000045776367,26.199996948242188 z" id="svg_42"/>
		<path class="st3" d="M507.2000045776367,16.699996948242188 c-1.8,-3.7 -4.9,-4.2 -5.7,-4.3 c-3.4,-0.5 -5.4,1.7000000000000002 -5.4,4.6 c0,3.1 2.2,4.4 5.1,6.2 c2.8,1.8 4.3,2.6 5.7,3.8 c1.3,1 3.1,2.8 3.1,6 c0,4.8 -4.1,7.8 -9,7.2 c-3.7,-0.5 -5.6,-2.5 -6.7,-3.9 c-1.1,-1.4 -1.6,-2.6 -1.9,-3.4 c0.5,-0.2 1.1,-0.4 1.6,-0.6000000000000001 c0.4,1.2 1.1,2.4 1.6,3 c1.3,1.8 3.4,2.9 5.4,3.2 c3.9,0.5 6.9,-1.9 6.9,-5.7 c0,-1.6 -0.6000000000000001,-3.3 -2.8,-4.9 c-0.8,-0.6000000000000001 -2.5,-1.7000000000000002 -4.9,-3.2 c-2.8,-1.8 -4.3,-2.7 -5.3,-4.5 c-0.6000000000000001,-1.2 -0.9,-2.3 -0.9,-3.4 c0,-3.3 2.2,-6.9 7.4,-6.2 c2.9,0.4 5.5,2.1 7,5.1 C508.2000045776367,16.099996948242193 507.7000045776367,16.399996948242176 507.2000045776367,16.699996948242188 z" id="svg_43"/>
		<path class="st3" d="M518.1000045776367,24.599996948242193 c0,3.5 0,7.1 0,10.6 c0,1.3 0,3.1 1.1,4.6 c1.1,1.5 2.7,1.8 3.5,2 c0.8,0.1 2.4,0.2 3.5,-0.9 c1.1,-1.1 1.1,-3 1.1,-4.2 c0,-3.5 0,-7.1 0,-10.6 c0.6000000000000001,0.1 1.1,0.2 1.7000000000000002,0.30000000000000004 c0,3.7 0,7.4 0,11.1 c0,1.4 -0.1,3.3 -1.3,4.6 c-1.3,1.5 -3.4,1.6 -5,1.4 c-1.6,-0.2 -3.7,-1 -5,-2.9 c-1.2,-1.7000000000000002 -1.3,-3.6 -1.3,-5 c0,-3.7 0,-7.4 0,-11.1 C517.0000045776367,24.399996948242176 517.6000045776367,24.4999969482422 518.1000045776367,24.599996948242193 z" id="svg_44"/>
		<path class="st3" d="M537.7000045776367,55.19999694824219 c-0.6000000000000001,-0.1 -1.1,-0.2 -1.7000000000000002,-0.30000000000000004 c0,-9.2 0,-18.4 0,-27.5 c0.6000000000000001,0.1 1.1,0.2 1.7000000000000002,0.30000000000000004 c0,1 0,2 0,3.1 c1.7000000000000002,-2 4.1,-2.8 6.9,-2.3 c5.3,0.9 8.5,5.5 8.5,10.6 c0,5.2 -3.3,8.8 -8.6,7.9 c-4.3,-0.7000000000000001 -6.3,-3.8 -6.8,-4.8 C537.7000045776367,46.4999969482422 537.7000045776367,50.79999694824218 537.7000045776367,55.19999694824219 zM551.3000045776367,38.69999694824219 c0,-4.8 -3.2,-8 -6.8,-8.6 c-3.4,-0.6000000000000001 -6.9,1.3 -6.9,6.2 c0,4.4 2.4,8.2 6.8,9 C548.9000045776368,45.9999969482422 551.3000045776367,42.9999969482422 551.3000045776367,38.69999694824219 z" id="svg_45"/>
		<path class="st3" d="M560.5000045776367,59.19999694824219 c-0.6000000000000001,-0.1 -1.1,-0.2 -1.7000000000000002,-0.30000000000000004 c0,-9.2 0,-18.4 0,-27.5 c0.6000000000000001,0.1 1.1,0.2 1.7000000000000002,0.30000000000000004 c0,1 0,2 0,3.1 c1.7000000000000002,-2 4.1,-2.7 6.9,-2.2 c5.3,1 8.5,5.6 8.5,10.7 c0,5.2 -3.3,8.8 -8.6,7.7 c-4.3,-0.8 -6.3,-3.9 -6.8,-4.9 C560.5000045776367,50.4999969482422 560.5000045776367,54.899996948242176 560.5000045776367,59.19999694824219 zM574.1000045776367,42.9999969482422 c0,-4.8 -3.2,-8.1 -6.8,-8.7 c-3.4,-0.7000000000000001 -6.9,1.2 -6.9,6 c0,4.4 2.4,8.3 6.8,9.1 C571.7000045776367,50.29999694824218 574.1000045776367,47.29999694824218 574.1000045776367,42.9999969482422 z" id="svg_46"/>
		<path class="st3" d="M598.8000045776367,48.29999694824218 c0,5.2 -4,8.4 -9.1,7.3 c-5.2,-1.1 -9.2,-5.9 -9.2,-11.1 c0,-5.2 4,-8.4 9.2,-7.3 C594.8000045776367,38.19999694824219 598.8000045776367,43.09999694824219 598.8000045776367,48.29999694824218 zM597.0000045776367,47.899996948242176 c0,-4.3 -3.2,-8.3 -7.3,-9.2 c-4.2,-0.9 -7.4,1.8 -7.4,6.1 c0,4.3 3.2,8.2 7.4,9.1 C593.9000045776368,54.79999694824218 597.0000045776367,52.19999694824219 597.0000045776367,47.899996948242176 z" id="svg_47"/>
		<path class="st3" d="M604.3000045776367,40.69999694824219 c0.6000000000000001,0.1 1.1,0.30000000000000004 1.7000000000000002,0.4 c0,0.8 0,1.5 0,2.3 c0.6000000000000001,-1.4 2,-2.2 3.8,-1.8 c0.5,0.1 1.2,0.4 1.8,0.9 c-0.30000000000000004,0.5 -0.6000000000000001,0.9 -0.9,1.4 c-0.2,-0.2 -0.5,-0.5 -1.3,-0.6000000000000001 c-3.5,-0.8 -3.5,3.9 -3.5,6.1 c0,3.2 0,6.3 0,9.5 c-0.6000000000000001,-0.1 -1.1,-0.30000000000000004 -1.7000000000000002,-0.4 C604.3000045776367,52.399996948242176 604.3000045776367,46.4999969482422 604.3000045776367,40.69999694824219 z" id="svg_48"/>
		<path class="st3" d="M619.2000045776367,45.69999694824219 c0,5.3 0,10.6 0,16 c-0.6000000000000001,-0.1 -1.1,-0.30000000000000004 -1.7000000000000002,-0.4 c0,-5.3 0,-10.6 0,-16 c-0.6000000000000001,-0.2 -1.3,-0.30000000000000004 -1.9,-0.5 c0,-0.5 0,-1.1 0,-1.6 c0.6000000000000001,0.1 1.3,0.30000000000000004 1.9,0.5 c0,-2.1 0,-4.2 0,-6.3 c0.6000000000000001,0.1 1.1,0.30000000000000004 1.7000000000000002,0.4 c0,2.1 0,4.2 0,6.3 c1,0.2 2,0.5 3,0.7000000000000001 c0,0.5 0,1.1 0,1.6 C621.2000045776367,46.19999694824219 620.2000045776367,45.9999969482422 619.2000045776367,45.69999694824219 z" id="svg_49"/>
	</g>
</g></g></svg>