<?xml version="1.0" encoding="utf-8"?>
<!-- Generator: Adobe Illustrator 22.1.0, SVG Export Plug-In . SVG Version: 6.00 Build 0)  -->
<svg version="1.1" id="レイヤー_1" xmlns="http://www.w3.org/2000/svg" xmlns:xlink="http://www.w3.org/1999/xlink" x="0px"
	 y="0px" viewBox="0 0 841.9 595.3" style="enable-background:new 0 0 841.9 595.3;" xml:space="preserve">
<style type="text/css">
	.st0{fill:#00427C;}
	.st1{fill:none;}
	.st2{fill:#C6171E;}
	.st3{fill:#004179;}
	.st4{fill:#C62C1E;}
	.st5{fill:#FFFFFF;}
	.st6{fill:#FFFFFF;stroke:#00427C;stroke-miterlimit:10;}
	.st7{fill:none;stroke:#CE131C;stroke-width:3.9685;stroke-miterlimit:10;}
</style>
<g>
	<g>
		<path class="st0" d="M328,267.4h-7.8c0,17.2-14.1,31.3-31.3,31.3c-17.3,0-31.3-14.1-31.3-31.3h-7.8c0,20.2,15.5,36.9,35.2,38.9
			v31.5h7.8v-31.5C312.6,304.4,328,287.7,328,267.4z"/>
		<path class="st0" d="M374.7,341.7c-21.6,0-39.1-17.5-39.1-39.1c0-21.6,17.6-39.1,39.1-39.1c21.6,0,39.1,17.6,39.1,39.1
			C413.8,324.2,396.3,341.7,374.7,341.7z M374.7,271.3c-17.3,0-31.3,14-31.3,31.3c0,17.3,14,31.3,31.3,31.3
			c17.3,0,31.3-14,31.3-31.3C406,285.4,392,271.3,374.7,271.3z"/>
		<rect x="498.5" y="253.5" class="st0" width="7.8" height="7.8"/>
		<rect x="556.9" y="253.5" class="st0" width="7.8" height="7.8"/>
		<path class="st0" d="M467.2,333.9c-17.3,0-31.3-14-31.3-31.3v-35.2h-7.8v35.2c0,21.6,17.5,39.1,39.1,39.1
			c20.1,0,36.7-15.2,38.9-34.7c-2.7-0.2-5.3-0.4-7.8-0.7C496.4,321.9,483.2,333.9,467.2,333.9z"/>
		<path class="st1" d="M498.5,290.1c-1.5,0.1-3,0.3-4.4,0.5c-15.1,1.9-17.1,4.2-17.1,6.2c0,2,2,4.4,17.1,6.2
			c1.4,0.2,2.8,0.3,4.3,0.5c0-0.3,0-0.6,0-0.9V290.1z"/>
		<path class="st1" d="M564.7,303.5c1.4-0.1,2.7-0.3,4-0.4c15.1-1.8,17.1-4.2,17.1-6.2c0-2-2-4.4-17.1-6.2c-1.3-0.2-2.6-0.3-4-0.4
			v6.7V303.5z"/>
		<path class="st1" d="M556.9,289.5c-7.7-0.5-16.4-0.8-25.4-0.8c-8.9,0-17.5,0.3-25.1,0.8v13.1c0,0.5-0.1,1-0.1,1.5
			c7.6,0.5,16.2,0.8,25.2,0.8c9,0,17.7-0.3,25.4-0.8v-7.3V289.5z"/>
		<path class="st0" d="M498.5,267.4v19.8v2.9v12.5c0,0.3,0,0.6,0,0.9c2.5,0.2,5.1,0.5,7.8,0.6c0-0.5,0.1-1,0.1-1.5v-13.1v-2.9v-19.2
			H498.5z"/>
		<path class="st0" d="M556.9,337.8h7.8v-31.5c-2.5,0.3-5.1,0.5-7.8,0.7V337.8z"/>
		<path class="st0" d="M556.9,267.4v19.2v2.9v7.3v7.3c2.7-0.2,5.4-0.4,7.8-0.6v-6.7v-6.7v-2.9v-19.9H556.9z"/>
		<path class="st2" d="M531.5,288.7c9,0,17.7,0.3,25.4,0.8v-2.9c-7.9-0.6-16.5-0.9-25.4-0.9c-8.8,0-17.3,0.3-25.1,0.9v2.9
			C514,289,522.6,288.7,531.5,288.7z"/>
		<path class="st2" d="M573,288.3c-2.6-0.4-5.4-0.7-8.3-1v2.9c1.4,0.1,2.7,0.3,4,0.4c15.1,1.9,17.1,4.2,17.1,6.2c0,2-2,4.4-17.1,6.2
			c-1.3,0.2-2.6,0.3-4,0.4c-2.5,0.2-5.1,0.5-7.8,0.6c-7.7,0.5-16.4,0.8-25.4,0.8c-8.9,0-17.5-0.3-25.2-0.8c-2.7-0.2-5.3-0.4-7.8-0.6
			c-1.5-0.1-2.9-0.3-4.3-0.5c-15.1-1.8-17.1-4.2-17.1-6.2c0-2,2-4.4,17.1-6.2c1.4-0.2,2.9-0.3,4.4-0.5v-2.9c-3.1,0.3-6,0.7-8.7,1.1
			c-16.8,2.5-19.1,5.7-19.1,8.5c0,2.8,2.3,6,19.1,8.5c2.6,0.4,5.4,0.7,8.4,1c2.5,0.3,5.1,0.5,7.8,0.7c7.8,0.6,16.4,0.9,25.4,0.9
			c9,0,17.6-0.3,25.4-0.9c2.7-0.2,5.3-0.4,7.8-0.7c2.9-0.3,5.7-0.6,8.3-1c16.8-2.5,19.1-5.7,19.1-8.5
			C592.1,294,589.8,290.8,573,288.3z"/>
	</g>
</g>
</svg>
